<svg width="28" height="19" viewBox="0 0 28 19" fill="none" xmlns="http://www.w3.org/2000/svg">
<path d="M24 17V11C24 5.47715 19.5031 1 13.9802 1C6.10011 1 15.4073 1 0 1" stroke="white"/>
<path d="M23.6464 18.3536C23.8417 18.5488 24.1583 18.5488 24.3536 18.3536L27.5355 15.1716C27.7308 14.9763 27.7308 14.6597 27.5355 14.4645C27.3403 14.2692 27.0237 14.2692 26.8284 14.4645L24 17.2929L21.1716 14.4645C20.9763 14.2692 20.6597 14.2692 20.4645 14.4645C20.2692 14.6597 20.2692 14.9763 20.4645 15.1716L23.6464 18.3536ZM23.5 17V18H24.5V17H23.5Z" fill="white"/>
</svg>
